#!OML:ASF H:\BabyWalks\Project 1\Capture day 1\Session 1\baby.ASF
:FULLY-SPECIFIED
:DEGREES
500
root 10.7358 17.1626 -0.631347 257.174 83.359 274.276
lowerback 7.69464 1.59508 -2.69398
upperback 3.61161 2.04073 -0.62003
thorax -0.648512 1.04531 0.706173
lowerneck 1.13886 -1.65426 6.12028
upperneck 10.089 -2.23662 1.59405
head 2.98065 -0.739691 -0.578431
rclavicle -1.72943e-014 5.56597e-014
rhumerus -46.084 9.65361 -84.075
rradius 43.4394
rwrist 7.05412
rhand -4.67505 -15.2962
rfingers 7.12502
rthumb 21.1056 -44.1675
lclavicle -1.72943e-014 5.56597e-014
lhumerus -43.0426 -7.01798 71.2368
lradius 69.1011
lwrist 9.23671
lhand -5.36325 8.22425
lfingers 7.12502
lthumb 20.4444 37.1679
rfemur 11.8167 8.90711 26.9788
rtibia 24.9617
rfoot -19.6461 4.40692
rtoes -2.92179
lfemur 12.9972 -8.04587 -10.6157
ltibia 31.0468
lfoot -30.9594 -4.28331
ltoes -5.77863
501
root 10.7301 17.1662 -0.653459 258.451 83.3325 275.498
lowerback 7.71104 1.69231 -2.64797
upperback 3.53719 2.16854 -0.655334
thorax -0.735653 1.1105 0.631426
lowerneck 1.26602 -1.7389 6.1586
upperneck 9.92958 -2.34481 1.71322
head 2.90127 -0.793865 -0.545691
rclavicle -6.36111e-015 0
rhumerus -46.2411 9.32323 -83.878
rradius 43.192
rwrist 7.19952
rhand -4.77957 -15.2747
rfingers 7.12502
rthumb 21.0052 -44.1572
lclavicle -6.36111e-015 0
lhumerus -43.088 -7.23783 71.5274
lradius 68.7116
lwrist 9.38801
lhand -5.32893 8.24872
lfingers 7.12502
lthumb 20.4773 37.1889
rfemur 11.7285 8.99959 26.9315
rtibia 24.9221
rfoot -19.5727 4.44177
rtoes -2.94762
lfemur 12.9494 -8.06361 -10.7223
ltibia 31.08
lfoot -30.9573 -3.97491
ltoes -5.88612
502
root 10.7228 17.1706 -0.676163 259.936 83.3212 276.905
lowerback 7.73707 1.79682 -2.59921
upperback 3.46876 2.30636 -0.690237
thorax -0.821733 1.18068 0.554252
lowerneck 1.36432 -1.82213 6.19677
upperneck 9.77253 -2.45206 1.81253
head 2.82818 -0.848494 -0.519643
rclavicle -1.82882e-014 2.06736e-014
rhumerus -46.3678 8.98767 -83.6687
rradius 42.943
rwrist 7.35009
rhand -4.84292 -15.264
rfingers 7.12502
rthumb 20.9443 -44.1532
lclavicle -1.82882e-014 2.06736e-014
lhumerus -43.1734 -7.41681 71.8208
lradius 68.2975
lwrist 9.52079
lhand -5.30602 8.28294
lfingers 7.12502
lthumb 20.4994 37.2207
rfemur 11.599 9.1256 26.8685
rtibia 24.906
rfoot -19.4982 4.47634
rtoes -2.9461
lfemur 12.8929 -8.06789 -10.8465
ltibia 31.0859
lfoot -30.9383 -3.67835
ltoes -5.94178
503
root 10.7143 17.1756 -0.699267 261.63 83.3223 278.505
lowerback 7.776 1.9064 -2.54858
upperback 3.41104 2.45137 -0.725605
thorax -0.90352 1.25446 0.474427
lowerneck 1.40902 -1.90148 6.24434
upperneck 9.63598 -2.55733 1.88281
head 2.77177 -0.902172 -0.505306
rclavicle 1.70955e-014 3.97569e-014
rhumerus -46.4514 8.65404 -83.4522
rradius 42.6896
rwrist 7.50854
rhand -4.8527 -15.2673
rfingers 7.12502
rthumb 20.9349 -44.1576
lclavicle 1.70955e-014 3.97569e-014
lhumerus -43.3066 -7.549 72.111
lradius 67.8735
lwrist 9.62024
lhand -5.3 8.32386
lfingers 7.12502
lthumb 20.5051 37.261
rfemur 11.4347 9.27872 26.7896
rtibia 24.9158
rfoot -19.4283 4.51132
rtoes -2.9248
lfemur 12.8325 -8.04676 -10.9799
ltibia 31.066
lfoot -30.9068 -3.41215
ltoes -5.94699
504
root 10.7046 17.1808 -0.722518 263.546 83.3327 280.313
lowerback 7.83153 2.01716 -2.50205
upperback 3.36293 2.59776 -0.759802
thorax -0.984326 1.32891 0.397253
lowerneck 1.42093 -1.96778 6.28541
upperneck 9.50636 -2.64765 1.94525
head 2.72415 -0.948809 -0.492574
rclavicle 1.64991e-014 -5.88403e-014
rhumerus -46.4884 8.34742 -83.2392
rradius 42.4316
rwrist 7.66829
rhand -4.7907 -15.2806
rfingers 7.12502
rthumb 20.9945 -44.1643
lclavicle 1.64991e-014 -5.88403e-014
lhumerus -43.5031 -7.62593 72.3948
lradius 67.4506
lwrist 9.67098
lhand -5.31488 8.36724
lfingers 7.12502
lthumb 20.4909 37.3059
rfemur 11.2376 9.45373 26.6939
rtibia 24.9521
rfoot -19.3627 4.55602
rtoes -2.89379
lfemur 12.7692 -7.98746 -11.1126
ltibia 31.0233
lfoot -30.8663 -3.19395
ltoes -5.89925
505
root 10.694 17.1861 -0.745739 265.654 83.3491 282.304
lowerback 7.90336 2.12574 -2.46154
upperback 3.32544 2.74099 -0.794725
thorax -1.06284 1.40176 0.322207
lowerneck 1.40213 -2.01859 6.3255
upperneck 9.38361 -2.71966 1.99911
head 2.68486 -0.986506 -0.482591
rclavicle -1.49089e-014 3.65764e-014
rhumerus -46.4745 8.07105 -83.038
rradius 42.1669
rwrist 7.84178
rhand -4.66074 -15.3032
rfingers 7.12502
rthumb 21.1194 -44.1729
lclavicle -1.49089e-014 3.65764e-014
lhumerus -43.769 -7.65219 72.6674
lradius 67.0347
lwrist 9.66313
lhand -5.36067 8.40204
lfingers 7.12502
lthumb 20.4468 37.3455
rfemur 11.0121 9.63932 26.5789
rtibia 25.0116
rfoot -19.3018 4.61673
rtoes -2.85201
lfemur 12.7016 -7.88495 -11.2392
ltibia 30.9615
lfoot -30.8218 -3.02988
ltoes -5.81397
506
root 10.6823 17.1911 -0.768744 267.908 83.37 284.429
lowerback 7.99267 2.22796 -2.43131
upperback 3.29929 2.87517 -0.830381
thorax -1.13909 1.47006 0.252123
lowerneck 1.35342 -2.05166 6.35894
upperneck 9.2648 -2.77081 2.05235
head 2.65294 -1.01402 -0.471806
rclavicle 1.19271e-015 1.11319e-014
rhumerus -46.4092 7.84045 -82.8564
rradius 41.8989
rwrist 8.02693
rhand -4.4722 -15.3362
rfingers 7.12502
rthumb 21.3005 -44.1856
lclavicle 1.19271e-015 1.11319e-014
lhumerus -44.1076 -7.63052 72.9265
lradius 66.6292
lwrist 9.58863
lhand -5.43598 8.4214
lfingers 7.12502
lthumb 20.3745 37.3726
rfemur 10.7637 9.82432 26.4404
rtibia 25.0906
rfoot -19.248 4.70127
rtoes -2.80264
lfemur 12.6272 -7.74081 -11.3581
ltibia 30.8849
lfoot -30.7756 -2.92216
ltoes -5.69945
507
root 10.6701 17.1962 -0.791268 270.222 83.3942 286.604
lowerback 8.09337 2.31891 -2.41418
upperback 3.28429 2.99365 -0.867671
thorax -1.20995 1.53046 0.188498
lowerneck 1.28289 -2.06777 6.39165
upperneck 9.14291 -2.80097 2.09891
head 2.62439 -1.03157 -0.463023
rclavicle -1.33186e-014 1.11319e-014
rhumerus -46.2942 7.65824 -82.699
rradius 41.6292
rwrist 8.22494
rhand -4.2292 -15.3689
rfingers 7.12502
rthumb 21.5339 -44.1918
lclavicle -1.33186e-014 1.11319e-014
lhumerus -44.5186 -7.56834 73.1702
lradius 66.2325
lwrist 9.44841
lhand -5.55534 8.40447
lfingers 7.12502
lthumb 20.2598 37.3679
rfemur 10.4933 10.0025 26.2797
rtibia 25.1829
rfoot -19.1987 4.80757
rtoes -2.73786
lfemur 12.5397 -7.55748 -11.4657
ltibia 30.7975
lfoot -30.731 -2.87294
ltoes -5.56727
508
root 10.6575 17.2011 -0.813145 272.55 83.4258 288.784
lowerback 8.20254 2.3984 -2.41604
upperback 3.28274 3.09593 -0.907557
thorax -1.27177 1.5827 0.133925
lowerneck 1.19859 -2.06926 6.41736
upperneck 9.00608 -2.81254 2.14259
head 2.59379 -1.04097 -0.453794
rclavicle -7.95139e-016 9.54166e-015
rhumerus -46.1368 7.52199 -82.5667
rradius 41.3678
rwrist 8.4365
rhand -3.96482 -15.4005
rfingers 7.12502
rthumb 21.7877 -44.1942
lclavicle -7.95139e-016 9.54166e-015
lhumerus -44.9922 -7.47866 73.4031
lradius 65.8377
lwrist 9.25271
lhand -5.73836 8.30084
lfingers 7.12502
lthumb 20.0839 37.2828
rfemur 10.2088 10.17 26.0931
rtibia 25.2824
rfoot -19.1539 4.93426
rtoes -2.67321
lfemur 12.4405 -7.3458 -11.5708
ltibia 30.7023
lfoot -30.6899 -2.86895
ltoes -5.4341
509
root 10.6446 17.2059 -0.83425 274.812 83.4628 290.886
lowerback 8.31491 2.463 -2.43547
upperback 3.29583 3.1777 -0.947501
thorax -1.32053 1.62463 0.0909846
lowerneck 1.11379 -2.05705 6.4323
upperneck 8.83918 -2.80529 2.18578
head 2.55373 -1.04284 -0.442404
rclavicle -1.98785e-016 -1.90833e-014
rhumerus -45.9416 7.43521 -82.4589
rradius 41.1241
rwrist 8.65309
rhand -3.69791 -15.4349
rfingers 7.12502
rthumb 22.044 -44.1986
lclavicle -1.98785e-016 -1.90833e-014
lhumerus -45.5157 -7.37171 73.6299
lradius 65.4371
lwrist 9.01915
lhand -6.02196 8.04833
lfingers 7.12502
lthumb 19.8112 37.0587
rfemur 9.91267 10.3206 25.885
rtibia 25.3819
rfoot -19.1119 5.07496
rtoes -2.61616
lfemur 12.3249 -7.11948 -11.6726
ltibia 30.6013
lfoot -30.6518 -2.90551
ltoes -5.29958
